<?xml version="1.0" encoding="utf-8"?>
<!-- Generator: Adobe Illustrator 16.0.0, SVG Export Plug-In . SVG Version: 6.00 Build 0)  -->
<!DOCTYPE svg PUBLIC "-//W3C//DTD SVG 1.1//EN" "http://www.w3.org/Graphics/SVG/1.1/DTD/svg11.dtd">
<svg version="1.1" id="Layer_1" xmlns="http://www.w3.org/2000/svg" xmlns:xlink="http://www.w3.org/1999/xlink" x="0px" y="0px"
	 width="511.998px" height="512px" viewBox="0 0 511.998 512" enable-background="new 0 0 511.998 512" xml:space="preserve">
<g>
	<path fill="#fd6740" d="M255.998,512C114.618,512,0,397.382,0,256S114.618,0,255.998,0c141.399,0,256,114.618,256,256
		S397.397,512,255.998,512L255.998,512z"/>
	<g>
		<path fill="#EDEDED" d="M405.769,334.728H107.293c-6.864,0-12.457-5.581-12.457-12.437V160.563
			c0-6.854,5.593-12.399,12.457-12.399h298.476c6.918,0,12.455,5.545,12.455,12.399v161.728
			C418.224,329.146,412.687,334.728,405.769,334.728L405.769,334.728z"/>
		<g>
			<rect x="103.822" y="157.789" fill="#1ABC9C" width="81.333" height="76.379"/>
			<rect x="198.657" y="157.789" fill="#E05B49" width="44.998" height="76.379"/>
			<rect x="261.239" y="157.789" fill="#EFC849" width="147.998" height="76.379"/>
		</g>
		<g>
			<rect x="265.819" y="248.723" fill="#1ABC9C" width="81.334" height="76.378"/>
			<rect x="364.239" y="248.723" fill="#F39C12" width="44.998" height="76.378"/>
			<rect x="103.822" y="248.723" fill="#77B3D5" width="147.997" height="76.378"/>
		</g>
		<g>
			<defs>
				<path id="SVGID_1_" d="M256.528,512C115.148,512,0.53,397.382,0.53,256S115.148,0,256.528,0c141.399,0,256,114.618,256,256
					S397.928,512,256.528,512L256.528,512z"/>
			</defs>
			<clipPath id="SVGID_2_">
				<use xlink:href="#SVGID_1_"  overflow="visible"/>
			</clipPath>
			<g opacity="0.3" clip-path="url(#SVGID_2_)">
				<g>
					<path fill="#102947" d="M513.319,220.347H184.678c-8.877,0-16.074,7.196-16.074,16.073c0,0.066,0.043,199.646,0.043,199.646
						c0.906,21.344,22.081,27.319,35.106,27.319h100.91v33.609h-44.84c-6.19,0-11.23,5.021-11.23,11.221v22.439h201.87v-22.439
						c0-6.2-5.04-11.221-11.221-11.221h-44.851v-33.609h100.91c16.564,0,33.315-6.741,34.056-27.319l0.034-199.646
						C529.394,227.543,522.197,220.347,513.319,220.347z"/>
					<path fill="#102947" d="M512.319,219.347H183.678c-8.877,0-16.074,7.196-16.074,16.073c0,0.066,0.043,199.646,0.043,199.646
						c0.906,21.344,22.081,27.319,35.106,27.319h100.91v33.609h-44.84c-6.19,0-11.23,5.021-11.23,11.221v22.439h201.87v-22.439
						c0-6.2-5.04-11.221-11.221-11.221h-44.851v-33.609h100.91c16.564,0,33.315-6.741,34.056-27.319l0.034-199.646
						C528.394,226.543,521.197,219.347,512.319,219.347z"/>
					<path fill="#102947" d="M511.319,218.347H182.678c-8.877,0-16.074,7.196-16.074,16.073c0,0.066,0.043,199.646,0.043,199.646
						c0.906,21.344,22.081,27.319,35.106,27.319h100.91v33.609h-44.84c-6.19,0-11.23,5.021-11.23,11.221v22.439h201.87v-22.439
						c0-6.2-5.04-11.221-11.221-11.221h-44.851v-33.609h100.91c16.564,0,33.315-6.741,34.056-27.319l0.034-199.646
						C527.394,225.543,520.197,218.347,511.319,218.347z"/>
					<path fill="#102947" d="M510.319,217.347H181.678c-8.877,0-16.074,7.196-16.074,16.073c0,0.066,0.043,199.646,0.043,199.646
						c0.906,21.344,22.081,27.319,35.106,27.319h100.91v33.609h-44.84c-6.19,0-11.23,5.021-11.23,11.221v22.439h201.87v-22.439
						c0-6.2-5.04-11.221-11.221-11.221h-44.851v-33.609h100.91c16.564,0,33.315-6.741,34.056-27.319l0.034-199.646
						C526.394,224.543,519.197,217.347,510.319,217.347z"/>
					<path fill="#102947" d="M509.319,216.347H180.678c-8.877,0-16.074,7.196-16.074,16.073c0,0.066,0.043,199.646,0.043,199.646
						c0.906,21.344,22.081,27.319,35.106,27.319h100.91v33.609h-44.84c-6.19,0-11.23,5.021-11.23,11.221v22.439h201.87v-22.439
						c0-6.2-5.04-11.221-11.221-11.221h-44.851v-33.609h100.91c16.564,0,33.315-6.741,34.056-27.319l0.034-199.646
						C525.394,223.543,518.197,216.347,509.319,216.347z"/>
					<path fill="#102947" d="M508.319,215.347H179.678c-8.877,0-16.074,7.196-16.074,16.073c0,0.066,0.043,199.646,0.043,199.646
						c0.906,21.344,22.081,27.319,35.106,27.319h100.91v33.609h-44.84c-6.19,0-11.23,5.021-11.23,11.221v22.439h201.87v-22.439
						c0-6.2-5.04-11.221-11.221-11.221h-44.851v-33.609h100.91c16.564,0,33.315-6.741,34.056-27.319l0.034-199.646
						C524.394,222.543,517.197,215.347,508.319,215.347z"/>
					<path fill="#102947" d="M507.319,214.347H178.678c-8.877,0-16.074,7.196-16.074,16.073c0,0.066,0.043,199.646,0.043,199.646
						c0.906,21.344,22.081,27.319,35.106,27.319h100.91v33.609h-44.84c-6.19,0-11.23,5.021-11.23,11.221v22.439h201.87v-22.439
						c0-6.2-5.04-11.221-11.221-11.221h-44.851v-33.609h100.91c16.564,0,33.315-6.741,34.056-27.319l0.034-199.646
						C523.394,221.543,516.197,214.347,507.319,214.347z"/>
					<path fill="#102947" d="M506.319,213.347H177.678c-8.877,0-16.074,7.196-16.074,16.073c0,0.066,0.043,199.646,0.043,199.646
						c0.906,21.344,22.081,27.319,35.106,27.319h100.91v33.609h-44.84c-6.19,0-11.23,5.021-11.23,11.221v22.439h201.87v-22.439
						c0-6.2-5.04-11.221-11.221-11.221h-44.851v-33.609h100.91c16.564,0,33.315-6.741,34.056-27.319l0.034-199.646
						C522.394,220.543,515.197,213.347,506.319,213.347z"/>
					<path fill="#102947" d="M505.319,212.347H176.678c-8.877,0-16.074,7.196-16.074,16.073c0,0.066,0.043,199.646,0.043,199.646
						c0.906,21.344,22.081,27.319,35.106,27.319h100.91v33.609h-44.84c-6.19,0-11.23,5.021-11.23,11.221v22.439h201.87v-22.439
						c0-6.2-5.04-11.221-11.221-11.221h-44.851v-33.609h100.91c16.564,0,33.315-6.741,34.056-27.319l0.034-199.646
						C521.394,219.543,514.197,212.347,505.319,212.347z"/>
					<path fill="#102947" d="M504.319,211.347H175.678c-8.877,0-16.074,7.196-16.074,16.073c0,0.066,0.043,199.646,0.043,199.646
						c0.906,21.344,22.081,27.319,35.106,27.319h100.91v33.609h-44.84c-6.19,0-11.23,5.021-11.23,11.221v22.439h201.87v-22.439
						c0-6.2-5.04-11.221-11.221-11.221h-44.851v-33.609h100.91c16.564,0,33.315-6.741,34.056-27.319l0.034-199.646
						C520.394,218.543,513.197,211.347,504.319,211.347z"/>
					<path fill="#102947" d="M503.319,210.347H174.678c-8.877,0-16.074,7.196-16.074,16.073c0,0.066,0.043,199.646,0.043,199.646
						c0.906,21.344,22.081,27.319,35.106,27.319h100.91v33.609h-44.84c-6.19,0-11.23,5.021-11.23,11.221v22.439h201.87v-22.439
						c0-6.2-5.04-11.221-11.221-11.221h-44.851v-33.609h100.91c16.564,0,33.315-6.741,34.056-27.319l0.034-199.646
						C519.394,217.543,512.197,210.347,503.319,210.347z"/>
					<path fill="#102947" d="M502.319,209.347H173.678c-8.877,0-16.074,7.196-16.074,16.073c0,0.066,0.043,199.646,0.043,199.646
						c0.906,21.344,22.081,27.319,35.106,27.319h100.91v33.609h-44.84c-6.19,0-11.23,5.021-11.23,11.221v22.439h201.87v-22.439
						c0-6.2-5.04-11.221-11.221-11.221h-44.851v-33.609h100.91c16.564,0,33.315-6.741,34.056-27.319l0.034-199.646
						C518.394,216.543,511.197,209.347,502.319,209.347z"/>
					<path fill="#102947" d="M501.319,208.347H172.678c-8.877,0-16.074,7.196-16.074,16.073c0,0.066,0.043,199.646,0.043,199.646
						c0.906,21.344,22.081,27.319,35.106,27.319h100.91v33.609h-44.84c-6.19,0-11.23,5.021-11.23,11.221v22.439h201.87v-22.439
						c0-6.2-5.04-11.221-11.221-11.221h-44.851v-33.609h100.91c16.564,0,33.315-6.741,34.056-27.319l0.034-199.646
						C517.394,215.543,510.197,208.347,501.319,208.347z"/>
					<path fill="#102947" d="M500.319,207.347H171.678c-8.877,0-16.074,7.196-16.074,16.073c0,0.066,0.043,199.646,0.043,199.646
						c0.906,21.344,22.081,27.319,35.106,27.319h100.91v33.609h-44.84c-6.19,0-11.23,5.021-11.23,11.221v22.439h201.87v-22.439
						c0-6.2-5.04-11.221-11.221-11.221h-44.851v-33.609h100.91c16.564,0,33.315-6.741,34.056-27.319l0.034-199.646
						C516.394,214.543,509.197,207.347,500.319,207.347z"/>
					<path fill="#102947" d="M499.319,206.347H170.678c-8.877,0-16.074,7.196-16.074,16.073c0,0.066,0.043,199.646,0.043,199.646
						c0.906,21.344,22.081,27.319,35.106,27.319h100.91v33.609h-44.84c-6.19,0-11.23,5.021-11.23,11.221v22.439h201.87v-22.439
						c0-6.2-5.04-11.221-11.221-11.221h-44.851v-33.609h100.91c16.564,0,33.315-6.741,34.056-27.319l0.034-199.646
						C515.394,213.543,508.197,206.347,499.319,206.347z"/>
					<path fill="#102947" d="M498.319,205.347H169.678c-8.877,0-16.074,7.196-16.074,16.073c0,0.066,0.043,199.646,0.043,199.646
						c0.906,21.344,22.081,27.319,35.106,27.319h100.91v33.609h-44.84c-6.19,0-11.23,5.021-11.23,11.221v22.439h201.87v-22.439
						c0-6.2-5.04-11.221-11.221-11.221h-44.851v-33.609h100.91c16.564,0,33.315-6.741,34.056-27.319l0.034-199.646
						C514.394,212.543,507.197,205.347,498.319,205.347z"/>
					<path fill="#102947" d="M497.319,204.347H168.678c-8.877,0-16.074,7.196-16.074,16.073c0,0.066,0.043,199.646,0.043,199.646
						c0.906,21.344,22.081,27.319,35.106,27.319h100.91v33.609h-44.84c-6.19,0-11.23,5.021-11.23,11.221v22.439h201.87v-22.439
						c0-6.2-5.04-11.221-11.221-11.221h-44.851v-33.609h100.91c16.564,0,33.315-6.741,34.056-27.319l0.034-199.646
						C513.394,211.543,506.197,204.347,497.319,204.347z"/>
					<path fill="#102947" d="M496.319,203.347H167.678c-8.877,0-16.074,7.196-16.074,16.073c0,0.066,0.043,199.646,0.043,199.646
						c0.906,21.344,22.081,27.319,35.106,27.319h100.91v33.609h-44.84c-6.19,0-11.23,5.021-11.23,11.221v22.439h201.87v-22.439
						c0-6.2-5.04-11.221-11.221-11.221h-44.851v-33.609h100.91c16.564,0,33.315-6.741,34.056-27.319l0.034-199.646
						C512.394,210.543,505.197,203.347,496.319,203.347z"/>
					<path fill="#102947" d="M495.319,202.347H166.678c-8.877,0-16.074,7.196-16.074,16.073c0,0.066,0.043,199.646,0.043,199.646
						c0.906,21.344,22.081,27.319,35.106,27.319h100.91v33.609h-44.84c-6.19,0-11.23,5.021-11.23,11.221v22.439h201.87v-22.439
						c0-6.2-5.04-11.221-11.221-11.221h-44.851v-33.609h100.91c16.564,0,33.315-6.741,34.056-27.319l0.034-199.646
						C511.394,209.543,504.197,202.347,495.319,202.347z"/>
					<path fill="#102947" d="M494.319,201.347H165.678c-8.877,0-16.074,7.196-16.074,16.073c0,0.066,0.043,199.646,0.043,199.646
						c0.906,21.344,22.081,27.319,35.106,27.319h100.91v33.609h-44.84c-6.19,0-11.23,5.021-11.23,11.221v22.439h201.87v-22.439
						c0-6.2-5.04-11.221-11.221-11.221h-44.851v-33.609h100.91c16.564,0,33.315-6.741,34.056-27.319l0.034-199.646
						C510.394,208.543,503.197,201.347,494.319,201.347z"/>
					<path fill="#102947" d="M493.319,200.347H164.678c-8.877,0-16.074,7.196-16.074,16.073c0,0.066,0.043,199.646,0.043,199.646
						c0.906,21.344,22.081,27.319,35.106,27.319h100.91v33.609h-44.84c-6.19,0-11.23,5.021-11.23,11.221v22.439h201.87v-22.439
						c0-6.2-5.04-11.221-11.221-11.221h-44.851v-33.609h100.91c16.564,0,33.315-6.741,34.056-27.319l0.034-199.646
						C509.394,207.543,502.197,200.347,493.319,200.347z"/>
					<path fill="#102947" d="M492.319,199.347H163.678c-8.877,0-16.074,7.196-16.074,16.073c0,0.066,0.043,199.646,0.043,199.646
						c0.906,21.344,22.081,27.319,35.106,27.319h100.91v33.609h-44.84c-6.19,0-11.23,5.021-11.23,11.221v22.439h201.87v-22.439
						c0-6.2-5.04-11.221-11.221-11.221h-44.851v-33.609h100.91c16.564,0,33.315-6.741,34.056-27.319l0.034-199.646
						C508.394,206.543,501.197,199.347,492.319,199.347z"/>
					<path fill="#102947" d="M491.319,198.347H162.678c-8.877,0-16.074,7.196-16.074,16.073c0,0.066,0.043,199.646,0.043,199.646
						c0.906,21.344,22.081,27.319,35.106,27.319h100.91v33.609h-44.84c-6.19,0-11.23,5.021-11.23,11.221v22.439h201.87v-22.439
						c0-6.2-5.04-11.221-11.221-11.221h-44.851v-33.609h100.91c16.564,0,33.315-6.741,34.056-27.319l0.034-199.646
						C507.394,205.543,500.197,198.347,491.319,198.347z"/>
					<path fill="#102947" d="M490.319,197.347H161.678c-8.877,0-16.074,7.196-16.074,16.073c0,0.066,0.043,199.646,0.043,199.646
						c0.906,21.344,22.081,27.319,35.106,27.319h100.91v33.609h-44.84c-6.19,0-11.23,5.021-11.23,11.221v22.439h201.87v-22.439
						c0-6.2-5.04-11.221-11.221-11.221h-44.851v-33.609h100.91c16.564,0,33.315-6.741,34.056-27.319l0.034-199.646
						C506.394,204.543,499.197,197.347,490.319,197.347z"/>
					<path fill="#102947" d="M489.319,196.347H160.678c-8.877,0-16.074,7.196-16.074,16.073c0,0.066,0.043,199.646,0.043,199.646
						c0.906,21.344,22.081,27.319,35.106,27.319h100.91v33.609h-44.84c-6.19,0-11.23,5.021-11.23,11.221v22.439h201.87v-22.439
						c0-6.2-5.04-11.221-11.221-11.221h-44.851v-33.609h100.91c16.564,0,33.315-6.741,34.056-27.319l0.034-199.646
						C505.394,203.543,498.197,196.347,489.319,196.347z"/>
					<path fill="#102947" d="M488.319,195.347H159.678c-8.877,0-16.074,7.196-16.074,16.073c0,0.066,0.043,199.646,0.043,199.646
						c0.906,21.344,22.081,27.319,35.106,27.319h100.91v33.609h-44.84c-6.19,0-11.23,5.021-11.23,11.221v22.439h201.87v-22.439
						c0-6.2-5.04-11.221-11.221-11.221h-44.851v-33.609h100.91c16.564,0,33.315-6.741,34.056-27.319l0.034-199.646
						C504.394,202.543,497.197,195.347,488.319,195.347z"/>
					<path fill="#102947" d="M487.319,194.347H158.678c-8.877,0-16.074,7.196-16.074,16.073c0,0.066,0.043,199.646,0.043,199.646
						c0.906,21.344,22.081,27.319,35.106,27.319h100.91v33.609h-44.84c-6.19,0-11.23,5.021-11.23,11.221v22.439h201.87v-22.439
						c0-6.2-5.04-11.221-11.221-11.221h-44.851v-33.609h100.91c16.564,0,33.315-6.741,34.056-27.319l0.034-199.646
						C503.394,201.543,496.197,194.347,487.319,194.347z"/>
					<path fill="#102947" d="M486.319,193.347H157.678c-8.877,0-16.074,7.196-16.074,16.073c0,0.066,0.043,199.646,0.043,199.646
						c0.906,21.344,22.081,27.319,35.106,27.319h100.91v33.609h-44.84c-6.19,0-11.23,5.021-11.23,11.221v22.439h201.87v-22.439
						c0-6.2-5.04-11.221-11.221-11.221h-44.851v-33.609h100.91c16.564,0,33.315-6.741,34.056-27.319l0.034-199.646
						C502.394,200.543,495.197,193.347,486.319,193.347z"/>
					<path fill="#102947" d="M485.319,192.347H156.678c-8.877,0-16.074,7.196-16.074,16.073c0,0.066,0.043,199.646,0.043,199.646
						c0.906,21.344,22.081,27.319,35.106,27.319h100.91v33.609h-44.84c-6.19,0-11.23,5.021-11.23,11.221v22.439h201.87v-22.439
						c0-6.2-5.04-11.221-11.221-11.221h-44.851v-33.609h100.91c16.564,0,33.315-6.741,34.056-27.319l0.034-199.646
						C501.394,199.543,494.197,192.347,485.319,192.347z"/>
					<path fill="#102947" d="M484.319,191.347H155.678c-8.877,0-16.074,7.196-16.074,16.073c0,0.066,0.043,199.646,0.043,199.646
						c0.906,21.344,22.081,27.319,35.106,27.319h100.91v33.609h-44.84c-6.19,0-11.23,5.021-11.23,11.221v22.439h201.87v-22.439
						c0-6.2-5.04-11.221-11.221-11.221h-44.851v-33.609h100.91c16.564,0,33.315-6.741,34.056-27.319l0.034-199.646
						C500.394,198.543,493.197,191.347,484.319,191.347z"/>
					<path fill="#102947" d="M483.319,190.347H154.678c-8.877,0-16.074,7.196-16.074,16.073c0,0.066,0.043,199.646,0.043,199.646
						c0.906,21.344,22.081,27.319,35.106,27.319h100.91v33.609h-44.84c-6.19,0-11.23,5.021-11.23,11.221v22.439h201.87v-22.439
						c0-6.2-5.04-11.221-11.221-11.221h-44.851v-33.609h100.91c16.564,0,33.315-6.741,34.056-27.319l0.034-199.646
						C499.394,197.543,492.197,190.347,483.319,190.347z"/>
					<path fill="#102947" d="M482.319,189.347H153.678c-8.877,0-16.074,7.196-16.074,16.073c0,0.066,0.043,199.646,0.043,199.646
						c0.906,21.344,22.081,27.319,35.106,27.319h100.91v33.609h-44.84c-6.19,0-11.23,5.021-11.23,11.221v22.439h201.87v-22.439
						c0-6.2-5.04-11.221-11.221-11.221h-44.851v-33.609h100.91c16.564,0,33.315-6.741,34.056-27.319l0.034-199.646
						C498.394,196.543,491.197,189.347,482.319,189.347z"/>
					<path fill="#102947" d="M481.319,188.347H152.678c-8.877,0-16.074,7.196-16.074,16.073c0,0.066,0.043,199.646,0.043,199.646
						c0.906,21.344,22.081,27.319,35.106,27.319h100.91v33.609h-44.84c-6.19,0-11.23,5.021-11.23,11.221v22.439h201.87v-22.439
						c0-6.2-5.04-11.221-11.221-11.221h-44.851v-33.609h100.91c16.564,0,33.315-6.741,34.056-27.319l0.034-199.646
						C497.394,195.543,490.197,188.347,481.319,188.347z"/>
					<path fill="#102947" d="M480.319,187.347H151.678c-8.877,0-16.074,7.196-16.074,16.073c0,0.066,0.043,199.646,0.043,199.646
						c0.906,21.344,22.081,27.319,35.106,27.319h100.91v33.609h-44.84c-6.19,0-11.23,5.021-11.23,11.221v22.439h201.87v-22.439
						c0-6.2-5.04-11.221-11.221-11.221h-44.851v-33.609h100.91c16.564,0,33.315-6.741,34.056-27.319l0.034-199.646
						C496.394,194.543,489.197,187.347,480.319,187.347z"/>
					<path fill="#102947" d="M479.319,186.347H150.678c-8.877,0-16.074,7.196-16.074,16.073c0,0.066,0.043,199.646,0.043,199.646
						c0.906,21.344,22.081,27.319,35.106,27.319h100.91v33.609h-44.84c-6.19,0-11.23,5.021-11.23,11.221v22.439h201.87v-22.439
						c0-6.2-5.04-11.221-11.221-11.221h-44.851v-33.609h100.91c16.564,0,33.315-6.741,34.056-27.319l0.034-199.646
						C495.394,193.543,488.197,186.347,479.319,186.347z"/>
					<path fill="#102947" d="M478.319,185.347H149.678c-8.877,0-16.074,7.196-16.074,16.073c0,0.066,0.043,199.646,0.043,199.646
						c0.906,21.344,22.081,27.319,35.106,27.319h100.91v33.609h-44.84c-6.19,0-11.23,5.021-11.23,11.221v22.439h201.87v-22.439
						c0-6.2-5.04-11.221-11.221-11.221h-44.851v-33.609h100.91c16.564,0,33.315-6.741,34.056-27.319l0.034-199.646
						C494.394,192.543,487.197,185.347,478.319,185.347z"/>
					<path fill="#102947" d="M477.319,184.347H148.678c-8.877,0-16.074,7.196-16.074,16.073c0,0.066,0.043,199.646,0.043,199.646
						c0.906,21.344,22.081,27.319,35.106,27.319h100.91v33.609h-44.84c-6.19,0-11.23,5.021-11.23,11.221v22.439h201.87v-22.439
						c0-6.2-5.04-11.221-11.221-11.221h-44.851v-33.609h100.91c16.564,0,33.315-6.741,34.056-27.319l0.034-199.646
						C493.394,191.543,486.197,184.347,477.319,184.347z"/>
					<path fill="#102947" d="M476.319,183.347H147.678c-8.877,0-16.074,7.196-16.074,16.073c0,0.066,0.043,199.646,0.043,199.646
						c0.906,21.344,22.081,27.319,35.106,27.319h100.91v33.609h-44.84c-6.19,0-11.23,5.021-11.23,11.221v22.439h201.87v-22.439
						c0-6.2-5.04-11.221-11.221-11.221h-44.851v-33.609h100.91c16.564,0,33.315-6.741,34.056-27.319l0.034-199.646
						C492.394,190.543,485.197,183.347,476.319,183.347z"/>
					<path fill="#102947" d="M475.319,182.347H146.678c-8.877,0-16.074,7.196-16.074,16.073c0,0.066,0.043,199.646,0.043,199.646
						c0.906,21.344,22.081,27.319,35.106,27.319h100.91v33.609h-44.84c-6.19,0-11.23,5.021-11.23,11.221v22.439h201.87v-22.439
						c0-6.2-5.04-11.221-11.221-11.221h-44.851v-33.609h100.91c16.564,0,33.315-6.741,34.056-27.319l0.034-199.646
						C491.394,189.543,484.197,182.347,475.319,182.347z"/>
					<path fill="#102947" d="M474.319,181.347H145.678c-8.877,0-16.074,7.196-16.074,16.073c0,0.066,0.043,199.646,0.043,199.646
						c0.906,21.344,22.081,27.319,35.106,27.319h100.91v33.609h-44.84c-6.19,0-11.23,5.021-11.23,11.221v22.439h201.87v-22.439
						c0-6.2-5.04-11.221-11.221-11.221h-44.851v-33.609h100.91c16.564,0,33.315-6.741,34.056-27.319l0.034-199.646
						C490.394,188.543,483.197,181.347,474.319,181.347z"/>
					<path fill="#102947" d="M473.319,180.347H144.678c-8.877,0-16.074,7.196-16.074,16.073c0,0.066,0.043,199.646,0.043,199.646
						c0.906,21.344,22.081,27.319,35.106,27.319h100.91v33.609h-44.84c-6.19,0-11.23,5.021-11.23,11.221v22.439h201.87v-22.439
						c0-6.2-5.04-11.221-11.221-11.221h-44.851v-33.609h100.91c16.564,0,33.315-6.741,34.056-27.319l0.034-199.646
						C489.394,187.543,482.197,180.347,473.319,180.347z"/>
					<path fill="#102947" d="M472.319,179.347H143.678c-8.877,0-16.074,7.196-16.074,16.073c0,0.066,0.043,199.646,0.043,199.646
						c0.906,21.344,22.081,27.319,35.106,27.319h100.91v33.609h-44.84c-6.19,0-11.23,5.021-11.23,11.221v22.439h201.87v-22.439
						c0-6.2-5.04-11.221-11.221-11.221h-44.851v-33.609h100.91c16.564,0,33.315-6.741,34.056-27.319l0.034-199.646
						C488.394,186.543,481.197,179.347,472.319,179.347z"/>
					<path fill="#102947" d="M471.319,178.347H142.678c-8.877,0-16.074,7.196-16.074,16.073c0,0.066,0.043,199.646,0.043,199.646
						c0.906,21.344,22.081,27.319,35.106,27.319h100.91v33.609h-44.84c-6.19,0-11.23,5.021-11.23,11.221v22.439h201.87v-22.439
						c0-6.2-5.04-11.221-11.221-11.221h-44.851v-33.609h100.91c16.564,0,33.315-6.741,34.056-27.319l0.034-199.646
						C487.394,185.543,480.197,178.347,471.319,178.347z"/>
					<path fill="#102947" d="M470.319,177.347H141.678c-8.877,0-16.074,7.196-16.074,16.073c0,0.066,0.043,199.646,0.043,199.646
						c0.906,21.344,22.081,27.319,35.106,27.319h100.91v33.609h-44.84c-6.19,0-11.23,5.021-11.23,11.221v22.439h201.87v-22.439
						c0-6.2-5.04-11.221-11.221-11.221h-44.851v-33.609h100.91c16.564,0,33.315-6.741,34.056-27.319l0.034-199.646
						C486.394,184.543,479.197,177.347,470.319,177.347z"/>
					<path fill="#102947" d="M469.319,176.347H140.678c-8.877,0-16.074,7.196-16.074,16.073c0,0.066,0.043,199.646,0.043,199.646
						c0.906,21.344,22.081,27.319,35.106,27.319h100.91v33.609h-44.84c-6.19,0-11.23,5.021-11.23,11.221v22.439h201.87v-22.439
						c0-6.2-5.04-11.221-11.221-11.221h-44.851v-33.609h100.91c16.564,0,33.315-6.741,34.056-27.319l0.034-199.646
						C485.394,183.543,478.197,176.347,469.319,176.347z"/>
					<path fill="#102947" d="M468.319,175.347H139.678c-8.877,0-16.074,7.196-16.074,16.073c0,0.066,0.043,199.646,0.043,199.646
						c0.906,21.344,22.081,27.319,35.106,27.319h100.91v33.609h-44.84c-6.19,0-11.23,5.021-11.23,11.221v22.439h201.87v-22.439
						c0-6.2-5.04-11.221-11.221-11.221h-44.851v-33.609h100.91c16.564,0,33.315-6.741,34.056-27.319l0.034-199.646
						C484.394,182.543,477.197,175.347,468.319,175.347z"/>
					<path fill="#102947" d="M467.319,174.347H138.678c-8.877,0-16.074,7.196-16.074,16.073c0,0.066,0.043,199.646,0.043,199.646
						c0.906,21.344,22.081,27.319,35.106,27.319h100.91v33.609h-44.84c-6.19,0-11.23,5.021-11.23,11.221v22.439h201.87v-22.439
						c0-6.2-5.04-11.221-11.221-11.221h-44.851v-33.609h100.91c16.564,0,33.315-6.741,34.056-27.319l0.034-199.646
						C483.394,181.543,476.197,174.347,467.319,174.347z"/>
					<path fill="#102947" d="M466.319,173.347H137.678c-8.877,0-16.074,7.196-16.074,16.073c0,0.066,0.043,199.646,0.043,199.646
						c0.906,21.344,22.081,27.319,35.106,27.319h100.91v33.609h-44.84c-6.19,0-11.23,5.021-11.23,11.221v22.439h201.87v-22.439
						c0-6.2-5.04-11.221-11.221-11.221h-44.851v-33.609h100.91c16.564,0,33.315-6.741,34.056-27.319l0.034-199.646
						C482.394,180.543,475.197,173.347,466.319,173.347z"/>
					<path fill="#102947" d="M465.319,172.347H136.678c-8.877,0-16.074,7.196-16.074,16.073c0,0.066,0.043,199.646,0.043,199.646
						c0.906,21.344,22.081,27.319,35.106,27.319h100.91v33.609h-44.84c-6.19,0-11.23,5.021-11.23,11.221v22.439h201.87v-22.439
						c0-6.2-5.04-11.221-11.221-11.221h-44.851v-33.609h100.91c16.564,0,33.315-6.741,34.056-27.319l0.034-199.646
						C481.394,179.543,474.197,172.347,465.319,172.347z"/>
					<path fill="#102947" d="M464.319,171.347H135.678c-8.877,0-16.074,7.196-16.074,16.073c0,0.066,0.043,199.646,0.043,199.646
						c0.906,21.344,22.081,27.319,35.106,27.319h100.91v33.609h-44.84c-6.19,0-11.23,5.021-11.23,11.221v22.439h201.87v-22.439
						c0-6.2-5.04-11.221-11.221-11.221h-44.851v-33.609h100.91c16.564,0,33.315-6.741,34.056-27.319l0.034-199.646
						C480.394,178.543,473.197,171.347,464.319,171.347z"/>
					<path fill="#102947" d="M463.319,170.347H134.678c-8.877,0-16.074,7.196-16.074,16.073c0,0.066,0.043,199.646,0.043,199.646
						c0.906,21.344,22.081,27.319,35.106,27.319h100.91v33.609h-44.84c-6.19,0-11.23,5.021-11.23,11.221v22.439h201.87v-22.439
						c0-6.2-5.04-11.221-11.221-11.221h-44.851v-33.609h100.91c16.564,0,33.315-6.741,34.056-27.319l0.034-199.646
						C479.394,177.543,472.197,170.347,463.319,170.347z"/>
					<path fill="#102947" d="M462.319,169.347H133.678c-8.877,0-16.074,7.196-16.074,16.073c0,0.066,0.043,199.646,0.043,199.646
						c0.906,21.344,22.081,27.319,35.106,27.319h100.91v33.609h-44.84c-6.19,0-11.23,5.021-11.23,11.221v22.439h201.87v-22.439
						c0-6.2-5.04-11.221-11.221-11.221h-44.851v-33.609h100.91c16.564,0,33.315-6.741,34.056-27.319l0.034-199.646
						C478.394,176.543,471.197,169.347,462.319,169.347z"/>
					<path fill="#102947" d="M461.319,168.347H132.678c-8.877,0-16.074,7.196-16.074,16.073c0,0.066,0.043,199.646,0.043,199.646
						c0.906,21.344,22.081,27.319,35.106,27.319h100.91v33.609h-44.84c-6.19,0-11.23,5.021-11.23,11.221v22.439h201.87v-22.439
						c0-6.2-5.04-11.221-11.221-11.221h-44.851v-33.609h100.91c16.564,0,33.315-6.741,34.056-27.319l0.034-199.646
						C477.394,175.543,470.197,168.347,461.319,168.347z"/>
					<path fill="#102947" d="M460.319,167.347H131.678c-8.877,0-16.074,7.196-16.074,16.073c0,0.066,0.043,199.646,0.043,199.646
						c0.906,21.344,22.081,27.319,35.106,27.319h100.91v33.609h-44.84c-6.19,0-11.23,5.021-11.23,11.221v22.439h201.87v-22.439
						c0-6.2-5.04-11.221-11.221-11.221h-44.851v-33.609h100.91c16.564,0,33.315-6.741,34.056-27.319l0.034-199.646
						C476.394,174.543,469.197,167.347,460.319,167.347z"/>
					<path fill="#102947" d="M459.319,166.347H130.678c-8.877,0-16.074,7.196-16.074,16.073c0,0.066,0.043,199.646,0.043,199.646
						c0.906,21.344,22.081,27.319,35.106,27.319h100.91v33.609h-44.84c-6.19,0-11.23,5.021-11.23,11.221v22.439h201.87v-22.439
						c0-6.2-5.04-11.221-11.221-11.221h-44.851v-33.609h100.91c16.564,0,33.315-6.741,34.056-27.319l0.034-199.646
						C475.394,173.543,468.197,166.347,459.319,166.347z"/>
					<path fill="#102947" d="M458.319,165.347H129.678c-8.877,0-16.074,7.196-16.074,16.073c0,0.066,0.043,199.646,0.043,199.646
						c0.906,21.344,22.081,27.319,35.106,27.319h100.91v33.609h-44.84c-6.19,0-11.23,5.021-11.23,11.221v22.439h201.87v-22.439
						c0-6.2-5.04-11.221-11.221-11.221h-44.851v-33.609h100.91c16.564,0,33.315-6.741,34.056-27.319l0.034-199.646
						C474.394,172.543,467.197,165.347,458.319,165.347z"/>
					<path fill="#102947" d="M457.319,164.347H128.678c-8.877,0-16.074,7.196-16.074,16.073c0,0.066,0.043,199.646,0.043,199.646
						c0.906,21.344,22.081,27.319,35.106,27.319h100.91v33.609h-44.84c-6.19,0-11.23,5.021-11.23,11.221v22.439h201.87v-22.439
						c0-6.2-5.04-11.221-11.221-11.221h-44.851v-33.609h100.91c16.564,0,33.315-6.741,34.056-27.319l0.034-199.646
						C473.394,171.543,466.197,164.347,457.319,164.347z"/>
					<path fill="#102947" d="M456.319,163.347H127.678c-8.877,0-16.074,7.196-16.074,16.073c0,0.066,0.043,199.646,0.043,199.646
						c0.906,21.344,22.081,27.319,35.106,27.319h100.91v33.609h-44.84c-6.19,0-11.23,5.021-11.23,11.221v22.439h201.87v-22.439
						c0-6.2-5.04-11.221-11.221-11.221h-44.851v-33.609h100.91c16.564,0,33.315-6.741,34.056-27.319l0.034-199.646
						C472.394,170.543,465.197,163.347,456.319,163.347z"/>
					<path fill="#102947" d="M455.319,162.347H126.678c-8.877,0-16.074,7.196-16.074,16.073c0,0.066,0.043,199.646,0.043,199.646
						c0.906,21.344,22.081,27.319,35.106,27.319h100.91v33.609h-44.84c-6.19,0-11.23,5.021-11.23,11.221v22.439h201.87v-22.439
						c0-6.2-5.04-11.221-11.221-11.221h-44.851v-33.609h100.91c16.564,0,33.315-6.741,34.056-27.319l0.034-199.646
						C471.394,169.543,464.197,162.347,455.319,162.347z"/>
					<path fill="#102947" d="M454.319,161.347H125.678c-8.877,0-16.074,7.196-16.074,16.073c0,0.066,0.043,199.646,0.043,199.646
						c0.906,21.344,22.081,27.319,35.106,27.319h100.91v33.609h-44.84c-6.19,0-11.23,5.021-11.23,11.221v22.439h201.87v-22.439
						c0-6.2-5.04-11.221-11.221-11.221h-44.851v-33.609h100.91c16.564,0,33.315-6.741,34.056-27.319l0.034-199.646
						C470.394,168.543,463.197,161.347,454.319,161.347z"/>
					<path fill="#102947" d="M453.319,160.347H124.678c-8.877,0-16.074,7.196-16.074,16.073c0,0.066,0.043,199.646,0.043,199.646
						c0.906,21.344,22.081,27.319,35.106,27.319h100.91v33.609h-44.84c-6.19,0-11.23,5.021-11.23,11.221v22.439h201.87v-22.439
						c0-6.2-5.04-11.221-11.221-11.221h-44.851v-33.609h100.91c16.564,0,33.315-6.741,34.056-27.319l0.034-199.646
						C469.394,167.543,462.197,160.347,453.319,160.347z"/>
					<path fill="#102947" d="M452.319,159.347H123.678c-8.877,0-16.074,7.196-16.074,16.073c0,0.066,0.043,199.646,0.043,199.646
						c0.906,21.344,22.081,27.319,35.106,27.319h100.91v33.609h-44.84c-6.19,0-11.23,5.021-11.23,11.221v22.439h201.87v-22.439
						c0-6.2-5.04-11.221-11.221-11.221h-44.851v-33.609h100.91c16.564,0,33.315-6.741,34.056-27.319l0.034-199.646
						C468.394,166.543,461.197,159.347,452.319,159.347z"/>
					<path fill="#102947" d="M451.319,158.347H122.678c-8.877,0-16.074,7.196-16.074,16.073c0,0.066,0.043,199.646,0.043,199.646
						c0.906,21.344,22.081,27.319,35.106,27.319h100.91v33.609h-44.84c-6.19,0-11.23,5.021-11.23,11.221v22.439h201.87v-22.439
						c0-6.2-5.04-11.221-11.221-11.221h-44.851v-33.609h100.91c16.564,0,33.315-6.741,34.056-27.319l0.034-199.646
						C467.394,165.543,460.197,158.347,451.319,158.347z"/>
					<path fill="#102947" d="M450.319,157.347H121.678c-8.877,0-16.074,7.196-16.074,16.073c0,0.066,0.043,199.646,0.043,199.646
						c0.906,21.344,22.081,27.319,35.106,27.319h100.91v33.609h-44.84c-6.19,0-11.23,5.021-11.23,11.221v22.439h201.87v-22.439
						c0-6.2-5.04-11.221-11.221-11.221h-44.851v-33.609h100.91c16.564,0,33.315-6.741,34.056-27.319l0.034-199.646
						C466.394,164.543,459.197,157.347,450.319,157.347z"/>
					<path fill="#102947" d="M449.319,156.347H120.678c-8.877,0-16.074,7.196-16.074,16.073c0,0.066,0.043,199.646,0.043,199.646
						c0.906,21.344,22.081,27.319,35.106,27.319h100.91v33.609h-44.84c-6.19,0-11.23,5.021-11.23,11.221v22.439h201.87v-22.439
						c0-6.2-5.04-11.221-11.221-11.221h-44.851v-33.609h100.91c16.564,0,33.315-6.741,34.056-27.319l0.034-199.646
						C465.394,163.543,458.197,156.347,449.319,156.347z"/>
					<path fill="#102947" d="M448.319,155.347H119.678c-8.877,0-16.074,7.196-16.074,16.073c0,0.066,0.043,199.646,0.043,199.646
						c0.906,21.344,22.081,27.319,35.106,27.319h100.91v33.609h-44.84c-6.19,0-11.23,5.021-11.23,11.221v22.439h201.87v-22.439
						c0-6.2-5.04-11.221-11.221-11.221h-44.851v-33.609h100.91c16.564,0,33.315-6.741,34.056-27.319l0.034-199.646
						C464.394,162.543,457.197,155.347,448.319,155.347z"/>
					<path fill="#102947" d="M447.319,154.347H118.678c-8.877,0-16.074,7.196-16.074,16.073c0,0.066,0.043,199.646,0.043,199.646
						c0.906,21.344,22.081,27.319,35.106,27.319h100.91v33.609h-44.84c-6.19,0-11.23,5.021-11.23,11.221v22.439h201.87v-22.439
						c0-6.2-5.04-11.221-11.221-11.221h-44.851v-33.609h100.91c16.564,0,33.315-6.741,34.056-27.319l0.034-199.646
						C463.394,161.543,456.197,154.347,447.319,154.347z"/>
					<path fill="#102947" d="M446.319,153.347H117.678c-8.877,0-16.074,7.196-16.074,16.073c0,0.066,0.043,199.646,0.043,199.646
						c0.906,21.344,22.081,27.319,35.106,27.319h100.91v33.609h-44.84c-6.19,0-11.23,5.021-11.23,11.221v22.439h201.87v-22.439
						c0-6.2-5.04-11.221-11.221-11.221h-44.851v-33.609h100.91c16.564,0,33.315-6.741,34.056-27.319l0.034-199.646
						C462.394,160.543,455.197,153.347,446.319,153.347z"/>
					<path fill="#102947" d="M445.319,152.347H116.678c-8.877,0-16.074,7.196-16.074,16.073c0,0.066,0.043,199.646,0.043,199.646
						c0.906,21.344,22.081,27.319,35.106,27.319h100.91v33.609h-44.84c-6.19,0-11.23,5.021-11.23,11.221v22.439h201.87v-22.439
						c0-6.2-5.04-11.221-11.221-11.221h-44.851v-33.609h100.91c16.564,0,33.315-6.741,34.056-27.319l0.034-199.646
						C461.394,159.543,454.197,152.347,445.319,152.347z"/>
					<path fill="#102947" d="M444.319,151.347H115.678c-8.877,0-16.074,7.196-16.074,16.073c0,0.066,0.043,199.646,0.043,199.646
						c0.906,21.344,22.081,27.319,35.106,27.319h100.91v33.609h-44.84c-6.19,0-11.23,5.021-11.23,11.221v22.439h201.87v-22.439
						c0-6.2-5.04-11.221-11.221-11.221h-44.851v-33.609h100.91c16.564,0,33.315-6.741,34.056-27.319l0.034-199.646
						C460.394,158.543,453.197,151.347,444.319,151.347z"/>
					<path fill="#102947" d="M443.319,150.347H114.678c-8.877,0-16.074,7.196-16.074,16.073c0,0.066,0.043,199.646,0.043,199.646
						c0.906,21.344,22.081,27.319,35.106,27.319h100.91v33.609h-44.84c-6.19,0-11.23,5.021-11.23,11.221v22.439h201.87v-22.439
						c0-6.2-5.04-11.221-11.221-11.221h-44.851v-33.609h100.91c16.564,0,33.315-6.741,34.056-27.319l0.034-199.646
						C459.394,157.543,452.197,150.347,443.319,150.347z"/>
					<path fill="#102947" d="M442.319,149.347H113.678c-8.877,0-16.074,7.196-16.074,16.073c0,0.066,0.043,199.646,0.043,199.646
						c0.906,21.344,22.081,27.319,35.106,27.319h100.91v33.609h-44.84c-6.19,0-11.23,5.021-11.23,11.221v22.439h201.87v-22.439
						c0-6.2-5.04-11.221-11.221-11.221h-44.851v-33.609h100.91c16.564,0,33.315-6.741,34.056-27.319l0.034-199.646
						C458.394,156.543,451.197,149.347,442.319,149.347z"/>
					<path fill="#102947" d="M441.319,148.347H112.678c-8.877,0-16.074,7.196-16.074,16.073c0,0.066,0.043,199.646,0.043,199.646
						c0.906,21.344,22.081,27.319,35.106,27.319h100.91v33.609h-44.84c-6.19,0-11.23,5.021-11.23,11.221v22.439h201.87v-22.439
						c0-6.2-5.04-11.221-11.221-11.221h-44.851v-33.609h100.91c16.564,0,33.315-6.741,34.056-27.319l0.034-199.646
						C457.394,155.543,450.197,148.347,441.319,148.347z"/>
					<path fill="#102947" d="M440.319,147.347H111.678c-8.877,0-16.074,7.196-16.074,16.073c0,0.066,0.043,199.646,0.043,199.646
						c0.906,21.344,22.081,27.319,35.106,27.319h100.91v33.609h-44.84c-6.19,0-11.23,5.021-11.23,11.221v22.439h201.87v-22.439
						c0-6.2-5.04-11.221-11.221-11.221h-44.851v-33.609h100.91c16.564,0,33.315-6.741,34.056-27.319l0.034-199.646
						C456.394,154.543,449.197,147.347,440.319,147.347z"/>
					<path fill="#102947" d="M439.319,146.347H110.678c-8.877,0-16.074,7.196-16.074,16.073c0,0.066,0.043,199.646,0.043,199.646
						c0.906,21.344,22.081,27.319,35.106,27.319h100.91v33.609h-44.84c-6.19,0-11.23,5.021-11.23,11.221v22.439h201.87v-22.439
						c0-6.2-5.04-11.221-11.221-11.221h-44.851v-33.609h100.91c16.564,0,33.315-6.741,34.056-27.319l0.034-199.646
						C455.394,153.543,448.197,146.347,439.319,146.347z"/>
					<path fill="#102947" d="M438.319,145.347H109.678c-8.877,0-16.074,7.196-16.074,16.073c0,0.066,0.043,199.646,0.043,199.646
						c0.906,21.344,22.081,27.319,35.106,27.319h100.91v33.609h-44.84c-6.19,0-11.23,5.021-11.23,11.221v22.439h201.87v-22.439
						c0-6.2-5.04-11.221-11.221-11.221h-44.851v-33.609h100.91c16.564,0,33.315-6.741,34.056-27.319l0.034-199.646
						C454.394,152.543,447.197,145.347,438.319,145.347z"/>
					<path fill="#102947" d="M437.319,144.347H108.678c-8.877,0-16.074,7.196-16.074,16.073c0,0.066,0.043,199.646,0.043,199.646
						c0.906,21.344,22.081,27.319,35.106,27.319h100.91v33.609h-44.84c-6.19,0-11.23,5.021-11.23,11.221v22.439h201.87v-22.439
						c0-6.2-5.04-11.221-11.221-11.221h-44.851v-33.609h100.91c16.564,0,33.315-6.741,34.056-27.319l0.034-199.646
						C453.394,151.543,446.197,144.347,437.319,144.347z"/>
					<path fill="#102947" d="M436.319,143.347H107.678c-8.877,0-16.074,7.196-16.074,16.073c0,0.066,0.043,199.646,0.043,199.646
						c0.906,21.344,22.081,27.319,35.106,27.319h100.91v33.609h-44.84c-6.19,0-11.23,5.021-11.23,11.221v22.439h201.87v-22.439
						c0-6.2-5.04-11.221-11.221-11.221h-44.851v-33.609h100.91c16.564,0,33.315-6.741,34.056-27.319l0.034-199.646
						C452.394,150.543,445.197,143.347,436.319,143.347z"/>
					<path fill="#102947" d="M435.319,142.347H106.678c-8.877,0-16.074,7.196-16.074,16.073c0,0.066,0.043,199.646,0.043,199.646
						c0.906,21.344,22.081,27.319,35.106,27.319h100.91v33.609h-44.84c-6.19,0-11.23,5.021-11.23,11.221v22.439h201.87v-22.439
						c0-6.2-5.04-11.221-11.221-11.221h-44.851v-33.609h100.91c16.564,0,33.315-6.741,34.056-27.319l0.034-199.646
						C451.394,149.543,444.197,142.347,435.319,142.347z"/>
					<path fill="#102947" d="M434.319,141.347H105.678c-8.877,0-16.074,7.196-16.074,16.073c0,0.066,0.043,199.646,0.043,199.646
						c0.906,21.344,22.081,27.319,35.106,27.319h100.91v33.609h-44.84c-6.19,0-11.23,5.021-11.23,11.221v22.439h201.87v-22.439
						c0-6.2-5.04-11.221-11.221-11.221h-44.851v-33.609h100.91c16.564,0,33.315-6.741,34.056-27.319l0.034-199.646
						C450.394,148.543,443.197,141.347,434.319,141.347z"/>
					<path fill="#102947" d="M433.319,140.347H104.678c-8.877,0-16.074,7.196-16.074,16.073c0,0.066,0.043,199.646,0.043,199.646
						c0.906,21.344,22.081,27.319,35.106,27.319h100.91v33.609h-44.84c-6.19,0-11.23,5.021-11.23,11.221v22.439h201.87v-22.439
						c0-6.2-5.04-11.221-11.221-11.221h-44.851v-33.609h100.91c16.564,0,33.315-6.741,34.056-27.319l0.034-199.646
						C449.394,147.543,442.197,140.347,433.319,140.347z"/>
					<path fill="#102947" d="M432.319,139.347H103.678c-8.877,0-16.074,7.196-16.074,16.073c0,0.066,0.043,199.646,0.043,199.646
						c0.906,21.344,22.081,27.319,35.106,27.319h100.91v33.609h-44.84c-6.19,0-11.23,5.021-11.23,11.221v22.439h201.87v-22.439
						c0-6.2-5.04-11.221-11.221-11.221h-44.851v-33.609h100.91c16.564,0,33.315-6.741,34.056-27.319l0.034-199.646
						C448.394,146.543,441.197,139.347,432.319,139.347z"/>
					<path fill="#102947" d="M431.319,138.347H102.678c-8.877,0-16.074,7.196-16.074,16.073c0,0.066,0.043,199.646,0.043,199.646
						c0.906,21.344,22.081,27.319,35.106,27.319h100.91v33.609h-44.84c-6.19,0-11.23,5.021-11.23,11.221v22.439h201.87v-22.439
						c0-6.2-5.04-11.221-11.221-11.221h-44.851v-33.609h100.91c16.564,0,33.315-6.741,34.056-27.319l0.034-199.646
						C447.394,145.543,440.197,138.347,431.319,138.347z"/>
					<path fill="#102947" d="M430.319,137.347H101.678c-8.877,0-16.074,7.196-16.074,16.073c0,0.066,0.043,199.646,0.043,199.646
						c0.906,21.344,22.081,27.319,35.106,27.319h100.91v33.609h-44.84c-6.19,0-11.23,5.021-11.23,11.221v22.439h201.87v-22.439
						c0-6.2-5.04-11.221-11.221-11.221h-44.851v-33.609h100.91c16.564,0,33.315-6.741,34.056-27.319l0.034-199.646
						C446.394,144.543,439.197,137.347,430.319,137.347z"/>
					<path fill="#102947" d="M429.319,136.347H100.678c-8.877,0-16.074,7.196-16.074,16.073c0,0.066,0.043,199.646,0.043,199.646
						c0.906,21.344,22.081,27.319,35.106,27.319h100.91v33.609h-44.84c-6.19,0-11.23,5.021-11.23,11.221v22.439h201.87v-22.439
						c0-6.2-5.04-11.221-11.221-11.221h-44.851v-33.609h100.91c16.564,0,33.315-6.741,34.056-27.319l0.034-199.646
						C445.394,143.543,438.197,136.347,429.319,136.347z"/>
					<path fill="#102947" d="M428.319,135.347H99.678c-8.877,0-16.074,7.196-16.074,16.073c0,0.066,0.043,199.646,0.043,199.646
						c0.906,21.344,22.081,27.319,35.106,27.319h100.91v33.609h-44.84c-6.19,0-11.23,5.021-11.23,11.221v22.439h201.87v-22.439
						c0-6.2-5.04-11.221-11.221-11.221h-44.851v-33.609h100.91c16.564,0,33.315-6.741,34.056-27.319l0.034-199.646
						C444.394,142.543,437.197,135.347,428.319,135.347z"/>
					<path fill="#102947" d="M427.319,134.347H98.678c-8.877,0-16.074,7.196-16.074,16.073c0,0.066,0.043,199.646,0.043,199.646
						c0.906,21.344,22.081,27.319,35.106,27.319h100.91v33.609h-44.84c-6.19,0-11.23,5.021-11.23,11.221v22.439h201.87v-22.439
						c0-6.2-5.04-11.221-11.221-11.221h-44.851v-33.609h100.91c16.564,0,33.315-6.741,34.056-27.319l0.034-199.646
						C443.394,141.543,436.197,134.347,427.319,134.347z"/>
					<path fill="#102947" d="M426.319,133.347H97.678c-8.877,0-16.074,7.196-16.074,16.073c0,0.066,0.043,199.646,0.043,199.646
						c0.906,21.344,22.081,27.319,35.106,27.319h100.91v33.609h-44.84c-6.19,0-11.23,5.021-11.23,11.221v22.439h201.87v-22.439
						c0-6.2-5.04-11.221-11.221-11.221h-44.851v-33.609h100.91c16.564,0,33.315-6.741,34.056-27.319l0.034-199.646
						C442.394,140.543,435.197,133.347,426.319,133.347z"/>
					<path fill="#102947" d="M425.319,132.347H96.678c-8.877,0-16.074,7.196-16.074,16.073c0,0.066,0.043,199.646,0.043,199.646
						c0.906,21.344,22.081,27.319,35.106,27.319h100.91v33.609h-44.84c-6.19,0-11.23,5.021-11.23,11.221v22.439h201.87v-22.439
						c0-6.2-5.04-11.221-11.221-11.221h-44.851v-33.609h100.91c16.564,0,33.315-6.741,34.056-27.319l0.034-199.646
						C441.394,139.543,434.197,132.347,425.319,132.347z"/>
					<path fill="#102947" d="M424.319,131.347H95.678c-8.877,0-16.074,7.196-16.074,16.073c0,0.066,0.043,199.646,0.043,199.646
						c0.906,21.344,22.081,27.319,35.106,27.319h100.91v33.609h-44.84c-6.19,0-11.23,5.021-11.23,11.221v22.439h201.87v-22.439
						c0-6.2-5.04-11.221-11.221-11.221h-44.851v-33.609h100.91c16.564,0,33.315-6.741,34.056-27.319l0.034-199.646
						C440.394,138.543,433.197,131.347,424.319,131.347z"/>
					<path fill="#102947" d="M423.319,130.347H94.678c-8.877,0-16.074,7.196-16.074,16.073c0,0.066,0.043,199.646,0.043,199.646
						c0.906,21.344,22.081,27.319,35.106,27.319h100.91v33.609h-44.84c-6.19,0-11.23,5.021-11.23,11.221v22.439h201.87v-22.439
						c0-6.2-5.04-11.221-11.221-11.221h-44.851v-33.609h100.91c16.564,0,33.315-6.741,34.056-27.319l0.034-199.646
						C439.394,137.543,432.197,130.347,423.319,130.347z"/>
					<path fill="#102947" d="M422.319,129.347H93.678c-8.877,0-16.074,7.196-16.074,16.073c0,0.066,0.043,199.646,0.043,199.646
						c0.906,21.344,22.081,27.319,35.106,27.319h100.91v33.609h-44.84c-6.19,0-11.23,5.021-11.23,11.221v22.439h201.87v-22.439
						c0-6.2-5.04-11.221-11.221-11.221h-44.851v-33.609h100.91c16.564,0,33.315-6.741,34.056-27.319l0.034-199.646
						C438.394,136.543,431.197,129.347,422.319,129.347z"/>
					<path fill="#102947" d="M421.319,128.347H92.678c-8.877,0-16.074,7.196-16.074,16.073c0,0.066,0.043,199.646,0.043,199.646
						c0.906,21.344,22.081,27.319,35.106,27.319h100.91v33.609h-44.84c-6.19,0-11.23,5.021-11.23,11.221v22.439h201.87v-22.439
						c0-6.2-5.04-11.221-11.221-11.221h-44.851v-33.609h100.91c16.564,0,33.315-6.741,34.056-27.319l0.034-199.646
						C437.394,135.543,430.197,128.347,421.319,128.347z"/>
					<path fill="#102947" d="M420.319,127.347H91.678c-8.877,0-16.074,7.196-16.074,16.073c0,0.066,0.043,199.646,0.043,199.646
						c0.906,21.344,22.081,27.319,35.106,27.319h100.91v33.609h-44.84c-6.19,0-11.23,5.021-11.23,11.221v22.439h201.87v-22.439
						c0-6.2-5.04-11.221-11.221-11.221h-44.851v-33.609h100.91c16.564,0,33.315-6.741,34.056-27.319l0.034-199.646
						C436.394,134.543,429.197,127.347,420.319,127.347z"/>
				</g>
				<path fill="#FFFFFF" d="M420.319,127.347H91.678c-8.877,0-16.074,7.196-16.074,16.073c0,0.066,0.043,199.646,0.043,199.646
					c0.906,21.344,22.081,27.319,35.106,27.319h100.91v33.609h-44.84c-6.19,0-11.23,5.021-11.23,11.221v22.439h201.87v-22.439
					c0-6.2-5.04-11.221-11.221-11.221h-44.851v-33.609h100.91c16.564,0,33.315-6.741,34.056-27.319l0.034-199.646
					C436.394,134.543,429.197,127.347,420.319,127.347z"/>
			</g>
		</g>
	</g>
</g>
</svg>
