<?xml version="1.0" encoding="utf-8"?>
<!-- Generator: Adobe Illustrator 16.0.0, SVG Export Plug-In . SVG Version: 6.00 Build 0)  -->
<!DOCTYPE svg PUBLIC "-//W3C//DTD SVG 1.1//EN" "http://www.w3.org/Graphics/SVG/1.1/DTD/svg11.dtd">
<svg version="1.1" id="Layer_1" xmlns="http://www.w3.org/2000/svg" xmlns:xlink="http://www.w3.org/1999/xlink" x="0px" y="0px"
	 width="512px" height="512px" viewBox="0 0 512 512" enable-background="new 0 0 512 512" xml:space="preserve">
<path fill="#fdeb40" d="M512,256c0,130.58-97.76,238.32-224.08,254.02C277.46,511.33,266.811,512,256,512C114.62,512,0,397.39,0,256
	C0,114.62,114.62,0,256,0c137.17,0,249.14,107.89,255.7,243.43C511.9,247.59,512,251.78,512,256z"/>
<g>
	<path opacity="0.2" enable-background="new    " d="M512,256c0,130.58-97.76,238.32-224.08,254.02
		c-3.21-0.989-169.596-171.264-169.6-171.659c-4.32-0.04-8-3.53-8-7.891V134.5c0-4.4,3.72-8.14,8.08-8.14h275.209
		c4.301,0,7.631,3.66,7.701,8h0.1c0.184,0,109.96,109.02,110.29,109.07C511.9,247.59,512,251.78,512,256z"/>
	<g>
		<g>
			<g>
				<path fill="#FFFFFF" d="M296.12,336.31c-14.127-1.564-28.257-2.34-42.389-2.331c-13.962,0.009-27.929,0.785-41.891,2.331
					c8.426,10.359,8.426,20.719,0,31.077h84.279C287.693,357.027,287.693,346.668,296.12,336.31z"/>
				<path opacity="0.2" enable-background="new    " d="M296.12,336.31c-14.127-1.564-68.548,2.11-82.677,2.117l43.396,8.768
					l39.28,20.191C287.693,357.027,287.693,346.668,296.12,336.31z"/>
			</g>
			<rect x="184.506" y="367.386" fill="#FFFFFF" width="138.725" height="18.072"/>
		</g>
		<path fill="#FFFFFF" d="M401.492,134.503v195.97c0,4.379-3.533,7.966-7.887,7.966h-275.21c-4.354,0-7.887-3.587-7.887-7.966
			v-195.97c0-4.403,3.533-7.96,7.887-7.96h275.21C397.958,126.542,401.492,130.1,401.492,134.503z"/>
		<g>
			<rect x="126.32" y="146.36" fill="#002856" width="259" height="164"/>
			<g>
				<rect x="131.571" y="148.719" fill="#D6EBFF" width="248.845" height="16.055"/>
				<g>
					<path fill="#D92716" d="M154.167,157.006c0,2.914-2.358,5.276-5.276,5.276c-2.91,0-5.271-2.362-5.271-5.276
						c0-2.913,2.36-5.273,5.271-5.273C151.809,151.733,154.167,154.093,154.167,157.006z"/>
					<circle fill="#FFCC00" cx="161.963" cy="157.006" r="5.273"/>
					<circle fill="#2ECC71" cx="175.034" cy="157.006" r="5.272"/>
				</g>
			</g>
			<g>
				<rect x="131.571" y="170.125" fill="#362F31" width="248.845" height="137.355"/>
				<g>
					<g>
						<rect x="189.545" y="253.965" fill="#D92716" width="56.19" height="7.135"/>
						<rect x="252.872" y="253.965" fill="#2ECC71" width="45.487" height="7.135"/>
					</g>
					<rect x="189.545" y="267.344" fill="#FFC600" width="33.893" height="7.135"/>
					<rect x="190.437" y="243.262" fill="#9CCFFF" width="31.217" height="7.136"/>
					<g>
						<rect x="166.355" y="195.099" fill="#FFC600" width="45.488" height="7.135"/>
						<rect x="216.302" y="195.099" fill="#2ECC71" width="32.109" height="7.135"/>
						<rect x="253.763" y="195.099" fill="#7F3F98" width="38.353" height="7.135"/>
						<rect x="298.359" y="195.099" fill="#9CCFFF" width="44.596" height="7.135"/>
					</g>
					<g>
						<rect x="190.437" y="209.369" fill="#9CCFFF" width="31.217" height="7.135"/>
						<rect x="284.98" y="207.585" fill="#7F3F98" width="38.353" height="7.135"/>
						<rect x="227.898" y="209.369" fill="#F5F5F5" width="51.73" height="7.135"/>
					</g>
					<g>
						<rect x="229.681" y="232.559" fill="#D92716" width="53.516" height="7.135"/>
						<rect x="190.437" y="232.559" fill="#9CCFFF" width="31.217" height="7.135"/>
						<rect x="288.547" y="232.559" fill="#F5F5F5" width="51.73" height="7.135"/>
					</g>
					<g>
						<polygon fill="#FFFFFF" points="182.363,176.298 170.567,182.374 170.567,184.634 182.363,190.709 182.363,187.195
							175,183.503 182.363,179.812 						"/>
						<polygon fill="#FFFFFF" points="216.148,176.298 227.944,182.374 227.944,184.634 216.148,190.709 216.148,187.195
							223.512,183.503 216.148,179.812 						"/>
						<rect x="186.143" y="179.387" fill="#FFFFFF" width="25.303" height="8.232"/>
					</g>
					<g>
						<polygon fill="#FFFFFF" points="179.263,218.186 179.263,221.578 186.374,225.144 179.263,228.707 179.263,232.1
							190.655,226.234 190.655,224.052 						"/>
						<polygon fill="#FFFFFF" points="173.968,216.504 167.321,233.78 170.661,233.78 177.333,216.504 						"/>
					</g>
					<g>
						<polygon fill="#FFFFFF" points="191.486,280.124 176.298,287.947 176.298,290.855 191.486,298.678 191.486,294.154
							182.005,289.4 191.486,284.648 						"/>
						<polygon fill="#FFFFFF" points="210.023,280.124 225.21,287.947 225.21,290.855 210.023,298.678 210.023,294.154
							219.504,289.4 210.023,284.648 						"/>
						<polygon fill="#FFFFFF" points="201.689,279.732 194.249,299.07 197.987,299.07 205.455,279.732 						"/>
					</g>
					<rect x="158.328" y="170.125" fill="#FFFFFF" width="2.676" height="137.355"/>
					<rect x="135.138" y="175.476" fill="#FFFFFF" width="16.946" height="6.244"/>
					<rect x="142.274" y="195.099" fill="#C2ACB1" width="11.595" height="4.459"/>
					<rect x="142.274" y="204.91" fill="#C2ACB1" width="11.595" height="4.459"/>
					<rect x="142.274" y="215.612" fill="#C2ACB1" width="11.595" height="4.46"/>
					<rect x="142.274" y="255.749" fill="#C2ACB1" width="11.595" height="4.46"/>
					<rect x="142.274" y="265.561" fill="#C2ACB1" width="11.595" height="4.459"/>
					<rect x="142.274" y="276.264" fill="#C2ACB1" width="11.595" height="4.459"/>
					<polygon fill="#D92716" points="136.565,184.396 140.945,191.981 145.324,184.396 					"/>
					<rect x="133.354" y="237.019" fill="#FFFFFF" width="16.946" height="6.243"/>
					<polygon fill="#D92716" points="134.782,245.938 139.161,253.523 143.541,245.938 					"/>
				</g>
			</g>
		</g>
	</g>
</g>
</svg>
