<?xml version="1.0" encoding="utf-8"?>
<!-- Generator: Adobe Illustrator 16.0.0, SVG Export Plug-In . SVG Version: 6.00 Build 0)  -->
<!DOCTYPE svg PUBLIC "-//W3C//DTD SVG 1.1//EN" "http://www.w3.org/Graphics/SVG/1.1/DTD/svg11.dtd">
<svg version="1.1" id="Layer_1" xmlns="http://www.w3.org/2000/svg" xmlns:xlink="http://www.w3.org/1999/xlink" x="0px" y="0px"
	 width="512px" height="512px" viewBox="0 0 512 512" enable-background="new 0 0 512 512" xml:space="preserve">
<g>
	<g>
		<path fill="#35d697" d="M512,256c0,119.847-82.354,220.478-193.576,248.315c-19.615,4.924-40.131,7.607-61.285,7.685H256
			c-1.062,0-2.13,0-3.191-0.038c-6.654-0.085-13.231-0.399-19.77-0.984C102.4,499.354,0,389.669,0,256C0,114.608,114.607,0,256,0
			c129.178,0,236.031,95.662,253.478,220.039c0.077,0.669,0.2,1.338,0.276,2.008C511.208,233.154,512,244.5,512,256z"/>
		<path opacity="0.2" enable-background="new    " d="M512,256c0,119.847-82.354,220.478-193.576,248.315
			c-19.615,4.924-40.131,7.607-61.285,7.685H256c-1.062,0-2.13,0-3.191-0.038c-6.654-0.085-13.231-0.399-19.77-0.984
			C180.3,458.239,127.054,404.954,119.1,397.039l12.877-22.692v-3.814l-0.631-1.377l-11.185-3.394v-8.269l-11.815-3.547v-8.27
			l-11.815-3.547v-33.438l27.015-7.478l9.023-22.808l-13.115-24.339l23.708-23.631l24.454,13.746l22.568-9.253l7.523-26.938h33.554
			l26.985,34.691l1.73,0.754h3.308l13.938-7.838l-4.094-4.101v-0.038l-11.814-11.777v-0.038L249.5,207.87l9.178-16.186l-2.208-0.669
			v-8.23l-11.815-3.585v-8.23l-11.815-3.585V142.77l19.97-5.516l6.615-16.815l-9.646-17.961l17.485-17.408l18,10.161l16.661-6.854
			l5.509-19.846h24.737l3.584,11.815h8.231l3.584,11.769l0.039,0.046h8.191l0.67,2.123l16.262-9.177
			c16.308,16.231,80.346,80.308,137.021,136.939C511.208,233.154,512,244.5,512,256z"/>
		<g>
			<g>
				<g>
					<path fill="#3D7089" d="M332.954,308.715v33.423l-26.554,7.979l-9.846,22.469l13.814,24.331l-23.73,23.631L262.191,407.5
						l-22.915,9.555l-8.016,26.453H197.7l-7.522-26.945l-22.916-8.962l-24.438,13.062l-23.73-23.639l13.815-24.34l-9.846-22.567
						l-26.546-7.979v-33.423l27.039-7.483l8.993-22.815l-13.1-24.347l23.731-23.623l24.438,13.754l22.562-9.262l7.522-26.945h33.562
						l8.016,26.445l22.562,9.815l24.446-13.769l23.729,23.646l-13.106,24.348l8.991,22.754L332.954,308.715L332.954,308.715z
						 M214.477,278.846c-25.869,0-46.839,20.894-46.839,46.653c0,25.77,20.97,46.662,46.839,46.662s46.837-20.894,46.837-46.662
						C261.314,299.739,240.346,278.846,214.477,278.846L214.477,278.846z"/>
					<path fill="#f1d67e" d="M214.677,259.523c36.815,0,66.653,29.822,66.653,66.606c0,36.777-29.838,66.608-66.653,66.608
						c-36.808,0-66.639-29.831-66.639-66.608C148.039,289.346,177.87,259.523,214.677,259.523L214.677,259.523z M214.669,250.446
						c41.808,0,75.707,33.9,75.707,75.724c0,41.815-33.899,75.723-75.707,75.723s-75.7-33.906-75.7-75.723
						C138.969,284.346,172.862,250.446,214.669,250.446L214.669,250.446z"/>
				</g>
				<g>
					<path fill="#ECF0F1" d="M407.146,142.769V167.4l-19.578,5.885l-7.254,16.562l10.186,17.938L373,225.208l-18.007-9.623
						l-16.9,7.038l-5.907,19.508h-24.738l-5.547-19.869l-16.893-6.6l-18.015,9.623L249.5,207.862l10.186-17.946l-7.262-16.631
						l-19.569-5.885v-24.631l19.938-5.523l6.631-16.814l-9.662-17.954l17.5-17.408l18.016,10.146l16.623-6.831l5.547-19.869h24.738
						l5.907,19.493l16.632,7.238L372.739,85.1l17.5,17.423l-9.662,17.954l6.623,16.769L407.146,142.769L407.146,142.769z
						 M319.814,120.746c-19.075,0-34.521,15.4-34.521,34.393c0,18.993,15.446,34.385,34.521,34.385
						c19.062,0,34.523-15.393,34.523-34.385C354.338,136.147,338.876,120.746,319.814,120.746L319.814,120.746z"/>
					<path fill="#1878d7" d="M319.961,106.508c27.139,0,49.131,21.985,49.131,49.092c0,27.115-21.992,49.092-49.131,49.092
						c-27.131,0-49.123-21.977-49.123-49.092C270.838,128.493,292.831,106.508,319.961,106.508L319.961,106.508z M319.945,99.815
						c30.832,0,55.816,24.985,55.816,55.815c0,30.823-24.984,55.815-55.816,55.815c-30.814,0-55.791-24.992-55.791-55.815
						C264.154,124.8,289.13,99.815,319.945,99.815L319.945,99.815z"/>
				</g>
			</g>
		</g>
	</g>
</g>
</svg>
